<?xml version="1.0" encoding="UTF-8" standalone="no" ?>
<!DOCTYPE svg PUBLIC "-//W3C//DTD SVG 1.1//EN" "http://www.w3.org/Graphics/SVG/1.1/DTD/svg11.dtd">
<svg xmlns="http://www.w3.org/2000/svg" xmlns:xlink="http://www.w3.org/1999/xlink" version="1.1" width="100" height="100" viewBox="0 0 500 500" xml:space="preserve">
<desc>Created with Fabric.js 4.6.0</desc>
<defs>
</defs>
<g transform="matrix(2.02 0 0 2.02 250 250)" id="0xul5NDCRLVCpgredtmoc"  >
<path style="stroke: rgb(202,2,13); stroke-width: 0; stroke-dasharray: none; stroke-linecap: butt; stroke-dashoffset: 0; stroke-linejoin: miter; stroke-miterlimit: 4; fill: rgb(255,0,0); fill-rule: nonzero; opacity: 1;" vector-effect="non-scaling-stroke"  transform=" translate(0, 0)" d="M 0 -120.8134 C 66.689 -120.8134 120.8134 -66.689 120.8134 0 C 120.8134 66.689 66.689 120.8134 0 120.8134 C -66.689 120.8134 -120.8134 66.689 -120.8134 0 C -120.8134 -66.689 -66.689 -120.8134 0 -120.8134 z" stroke-linecap="round" />
</g>
<g transform="matrix(1 0 0 1 250 250)" id="QesE1ilHjbZVWZ5IkOPpT"  >
<path style="stroke: rgb(154,181,198); stroke-width: 0; stroke-dasharray: none; stroke-linecap: butt; stroke-dashoffset: 0; stroke-linejoin: miter; stroke-miterlimit: 4; fill: rgb(255,255,255); fill-rule: nonzero; opacity: 1;" vector-effect="non-scaling-stroke"  transform=" translate(-48.5, -48.5)" d="M 48.5 0 C 75.27199999999999 0 97 21.728 97 48.5 C 97 75.27199999999999 75.27199999999999 97 48.5 97 C 21.728 97 0 75.27199999999999 0 48.5 C 0 21.728 21.728 0 48.5 0 z" stroke-linecap="round" />
</g>
</svg>