<?xml version="1.0" encoding="UTF-8" standalone="no" ?>
<!DOCTYPE svg PUBLIC "-//W3C//DTD SVG 1.1//EN" "http://www.w3.org/Graphics/SVG/1.1/DTD/svg11.dtd">
<svg xmlns="http://www.w3.org/2000/svg" xmlns:xlink="http://www.w3.org/1999/xlink" version="1.1" width="100" height="100" viewBox="0 0 500 500" xml:space="preserve">
<desc>Created with Fabric.js 4.6.0</desc>
<defs>
</defs>
<g transform="matrix(2.02 0 0 2.02 250 250)" id="0xul5NDCRLVCpgredtmoc"  >
<path style="stroke: rgb(0,0,0); stroke-width: 1; stroke-dasharray: none; stroke-linecap: butt; stroke-dashoffset: 0; stroke-linejoin: miter; stroke-miterlimit: 4; fill: rgb(255,255,255); fill-rule: nonzero; opacity: 1;" vector-effect="non-scaling-stroke"  transform=" translate(0, 0)" d="M 0 -120.8134 C 66.689 -120.8134 120.8134 -66.689 120.8134 0 C 120.8134 66.689 66.689 120.8134 0 120.8134 C -66.689 120.8134 -120.8134 66.689 -120.8134 0 C -120.8134 -66.689 -66.689 -120.8134 0 -120.8134 z" stroke-linecap="round" />
</g>
<g transform="matrix(1 0 0 1 250 250)" id="5Y4HMrugajyBCx937xzkC"  >
<path style="stroke: rgb(0,0,0); stroke-width: 1; stroke-dasharray: none; stroke-linecap: butt; stroke-dashoffset: 0; stroke-linejoin: miter; stroke-miterlimit: 4; fill: rgb(255,255,255); fill-rule: nonzero; opacity: 1;" vector-effect="non-scaling-stroke"  transform=" translate(-45, -45)" d="M 45 0 C 69.84 0 90 20.16 90 45 C 90 69.84 69.84 90 45 90 C 20.16 90 0 69.84 0 45 C 0 20.16 20.16 0 45 0 z" stroke-linecap="round" />
</g>
</svg>